<svg width="261" height="261" viewBox="0 0 261 261" fill="none" xmlns="http://www.w3.org/2000/svg">
    <path fill-rule="evenodd" clip-rule="evenodd"
        d="M29.9062 0C13.3895 0 0 13.3895 0 29.9062V231.094C0 247.611 13.3895 261 29.9062 261H228.375C244.892 261 258.281 247.611 258.281 231.094V29.9062C258.281 13.3895 244.892 0 228.375 0H29.9062ZM121.92 55.0153C136.732 53.6906 151.266 54.247 165.516 58.3403C174.6 60.9496 182.971 64.9899 190.209 71.1591C200.645 80.0538 206.708 91.3932 208.654 104.902C210.539 117.993 209.302 130.675 202.955 142.534C199.035 149.857 193.352 155.529 186.33 159.9C186.106 160.039 185.883 160.179 185.638 160.334C169.289 170.148 153.886 174.305 137.163 175.61C134.817 170.144 132.748 164.545 130.968 158.808C130.062 155.887 129.357 152.903 128.652 149.919L128.652 149.919L128.652 149.919C128.359 148.68 128.067 147.442 127.76 146.208C127.688 145.921 127.672 145.621 127.653 145.275C127.644 145.099 127.634 144.911 127.615 144.707C128.251 144.77 128.875 144.838 129.489 144.906L129.496 144.906C130.813 145.051 132.091 145.192 133.373 145.264C140.577 145.672 147.292 144.448 152.668 139.126C155.666 136.159 157.331 132.45 158.158 128.386C159.232 123.107 159.233 117.814 157.813 112.577C155.964 105.759 151.618 101.205 144.951 99.0496C137.481 96.6341 129.867 96.6197 122.356 98.8079C114.177 101.191 109.244 106.891 106.945 114.965C104.934 122.028 104.842 129.235 105.503 136.484C107 152.913 111.907 168.434 118.314 183.508C120.427 188.478 122.762 193.353 125.098 198.228C126.175 200.476 127.252 202.724 128.307 204.981C128.447 205.281 128.573 205.588 128.718 205.941L128.718 205.942L128.719 205.946C128.793 206.124 128.87 206.315 128.957 206.522C128.731 206.532 128.525 206.543 128.331 206.554L128.33 206.554C127.949 206.575 127.619 206.593 127.288 206.593C122.969 206.594 118.649 206.594 114.33 206.594H114.309C99.7253 206.594 85.142 206.594 70.5587 206.625C69.3889 206.628 68.843 206.266 68.4047 205.195C63.7916 193.924 60.5614 182.248 58.1359 170.338C55.46 157.199 53.7759 143.947 53.9882 130.508C54.189 117.792 56.1163 105.399 61.4489 93.732C68.8872 77.4585 81.3617 66.65 97.9756 60.4093C105.662 57.522 113.631 55.8766 121.92 55.0153Z"
        fill="black" />
</svg>